:SAMPLES-PER-SECOND 30
:FULLY-SPECIFIED
:DEGREES
602
root  -1.20878 6.04017 15.787 -45.786 -8.34082 1.95084
RightUpLeg  -89.506 -5.1734 7.96789
RightLeg  91.8949 16.5944 -8.85305
RightFoot  31.439 3.31047 -8.3652
RightToes  5.82077e-011 -3.18055e-015 -2.98177e-016
Spine  33.6405 1.24569 6.06652
Spine1  16.2761 0.86988 -0.821934
HEad  -14.1652 7.84243 5.00724
LeftShoulder1  -3.88251e-019 9.70628e-020 -3.87848e-018
LeftArm  3.89253 -15.5088 -39.0909
LeftForeArm  4.26615 -26.8521 5.41345
LeftHand  -3.42957 -12.3877 22.8656
RightShoulder  0.898448 5.3822 2.54831
RightArm  -1.25635 11.5953 36.2688
RightForeArm  6.89375 40.7171 -23.7678
RightHand  -3.46285 7.9211 -29.4001
LeftUpLeg  -88.5496 8.44924 -0.91222
LeftLeg  87.808 -13.9922 16.6815
LeftFoot  31.7624 -2.26665 5.71182
LeftToes  5.91571e-011 -3.44359e-011 -3.93244e-011
603
root  -1.22339 6.06566 15.8196 -45.682 -8.39939 2.02379
RightUpLeg  -89.6214 -5.08614 8.00533
RightLeg  92.0006 16.6123 -8.88299
RightFoot  31.3397 3.28221 -8.31613
RightToes  5.82077e-011 -3.18055e-015 -2.98177e-016
Spine  33.2095 1.37238 5.85558
Spine1  16.4917 0.891675 -0.590646
HEad  -14.177 8.24767 4.80371
LeftShoulder1  -3.88251e-019 9.70628e-020 -3.87848e-018
LeftArm  1.60541 -7.59014 -36.0987
LeftForeArm  -3.82906 -25.086 3.9546
LeftHand  -2.77307 -10.291 21.1138
RightShoulder  1.24439 5.60475 5.05897
RightArm  -2.87468 4.95087 32.4462
RightForeArm  1.50606 39.0319 -22.1803
RightHand  -2.58724 5.76358 -26.3035
LeftUpLeg  -88.6486 8.58797 -0.900525
LeftLeg  87.9088 -14.0248 16.7488
LeftFoot  31.6187 -2.20036 5.57019
LeftToes  5.91571e-011 -3.44359e-011 -3.93244e-011
604
root  -1.23119 6.08347 15.8512 -45.4796 -8.46105 2.07661
RightUpLeg  -89.8453 -4.97479 8.0435
RightLeg  92.0702 16.6245 -8.90612
RightFoot  31.3236 3.29114 -8.34102
RightToes  5.82077e-011 -3.18055e-015 -2.98177e-016
Spine  32.6692 1.36804 5.88496
Spine1  16.9524 0.980266 -0.836899
HEad  -14.0722 8.12538 4.63208
LeftShoulder1  -3.88251e-019 9.70628e-020 -3.87848e-018
LeftArm  -0.555514 0.172755 -33.2108
LeftForeArm  -8.06606 -21.997 1.68206
LeftHand  -2.28204 -8.0426 20.3902
RightShoulder  1.60365 5.86477 7.53088
RightArm  -4.98296 -3.10697 28.8501
RightForeArm  -5.14909 37.1309 -20.4542
RightHand  -1.8689 3.52521 -23.8526
LeftUpLeg  -88.8761 8.72238 -0.903122
LeftLeg  88.0357 -14.059 16.7301
LeftFoot  31.4777 -2.15164 5.46997
LeftToes  5.91571e-011 -3.44359e-011 -3.93244e-011
605
root  -1.237 6.07267 15.8618 -45.5087 -8.48355 2.06638
RightUpLeg  -89.864 -4.93698 8.06603
RightLeg  92.1373 16.6295 -8.86343
RightFoot  31.2819 3.32525 -8.43225
RightToes  5.82077e-011 -3.18055e-015 -2.98177e-016
Spine  32.188 1.34884 6.184
Spine1  18.0732 1.21415 -1.36987
HEad  -14.222 7.79916 5.08873
LeftShoulder1  -3.88251e-019 9.70628e-020 -3.87848e-018
LeftArm  -3.21989 6.83704 -30.8895
LeftForeArm  -4.31704 -16.5112 -0.556446
LeftHand  -1.954 -6.24651 20.2519
RightShoulder  1.93486 6.16142 9.63619
RightArm  -5.65049 -11.7158 24.9313
RightForeArm  -12.3962 33.6406 -17.7539
RightHand  -1.3725 1.10226 -23.9788
LeftUpLeg  -88.9248 8.77798 -0.852014
LeftLeg  88.1681 -14.0883 16.6196
LeftFoot  31.361 -2.11001 5.38325
LeftToes  5.91571e-011 -3.44359e-011 -3.93244e-011
606
root  -1.25207 6.03967 15.8446 -45.8304 -8.36579 2.02055
RightUpLeg  -89.6117 -4.99546 7.95682
RightLeg  92.204 16.636 -8.83606
RightFoot  31.1702 3.29113 -8.37116
RightToes  5.82077e-011 -3.18055e-015 -2.98177e-016
Spine  31.751 1.51165 6.36908
Spine1  20.0006 1.52817 -1.54611
HEad  -15.1216 7.5908 5.90663
LeftShoulder1  -3.88251e-019 9.70628e-020 -3.87848e-018
LeftArm  -3.97418 12.382 -29.5553
LeftForeArm  2.18253 -8.93085 -1.30589
LeftHand  -1.85133 -5.17028 21.1777
RightShoulder  2.20583 6.46349 11.1936
RightArm  -3.6469 -18.9128 20.8804
RightForeArm  -13.4709 25.9581 -13.2373
RightHand  -1.24646 -0.0464465 -26.2064
LeftUpLeg  -88.6992 8.72485 -0.821424
LeftLeg  88.2411 -14.1016 16.5221
LeftFoot  31.2147 -2.03696 5.22257
LeftToes  5.91571e-011 -3.44359e-011 -3.93244e-011
607
root  -1.27074 6.01047 15.813 -46.1655 -8.1441 1.98161
RightUpLeg  -89.3331 -5.0875 7.73223
RightLeg  92.2299 16.6455 -8.88884
RightFoot  31.0394 3.16312 -8.08365
RightToes  5.82077e-011 -3.18055e-015 -2.98177e-016
Spine  31.4375 1.82714 6.21008
Spine1  22.0387 1.70397 -1.05405
HEad  -16.4019 7.48499 6.08262
LeftShoulder1  -3.88251e-019 9.70628e-020 -3.87848e-018
LeftArm  -4.76045 18.1527 -28.7704
LeftForeArm  7.45778 -2.0633 -1.19226
LeftHand  -2.00048 -4.85483 23.5145
RightShoulder  2.48337 6.86741 12.566
RightArm  -1.58494 -24.053 17.5535
RightForeArm  -2.08716 13.6167 -8.19089
RightHand  -1.99464 2.10013 -29.6774
LeftUpLeg  -88.4389 8.65694 -0.892624
LeftLeg  88.219 -14.1021 16.618
LeftFoot  30.8823 -1.91438 4.96029
LeftToes  5.91571e-011 -3.44359e-011 -3.93244e-011
608
root  -1.27046 6.00066 15.7896 -46.2597 -7.97635 1.97991
RightUpLeg  -89.2769 -5.17446 7.55104
RightLeg  92.226 16.6476 -8.91282
RightFoot  30.914 3.03779 -7.79978
RightToes  5.82077e-011 -3.18055e-015 -2.98177e-016
Spine  31.4803 2.08896 5.97196
Spine1  23.2511 1.63995 -0.233476
HEad  -17.2059 7.31305 5.13436
LeftShoulder1  -3.88251e-019 9.70628e-020 -3.87848e-018
LeftArm  -5.47596 25.6149 -27.93
LeftForeArm  9.05804 0.0894556 -0.291777
LeftHand  -2.34618 -5.21568 26.4808
RightShoulder  2.85253 7.39206 14.297
RightArm  -1.96375 -29.0754 14.6667
RightForeArm  15.9796 1.11604 -5.91447
RightHand  -3.72472 6.07028 -36.1459
LeftUpLeg  -88.4069 8.68919 -1.0547
LeftLeg  88.1434 -14.1064 16.9846
LeftFoot  30.333 -1.78548 4.70216
LeftToes  5.91571e-011 -3.44359e-011 -3.93244e-011
609
root  -1.24029 6.00215 15.7749 -46.2508 -7.98927 1.97149
RightUpLeg  -89.2854 -5.27531 7.5555
RightLeg  92.2033 16.634 -8.81584
RightFoot  30.7778 2.99726 -7.72506
RightToes  5.82077e-011 -3.18055e-015 -2.98177e-016
Spine  31.955 2.1627 6.05031
Spine1  23.6637 1.47785 0.448899
HEad  -17.3202 7.1944 3.65631
LeftShoulder1  -3.88251e-019 9.70628e-020 -3.87848e-018
LeftArm  -4.91999 34.8145 -26.7922
LeftForeArm  7.45481 0.0255475 -0.0285097
LeftHand  -2.89912 -5.97189 30.2488
RightShoulder  3.28565 7.80076 16.5273
RightArm  -1.64713 -36.4015 10.2998
RightForeArm  25.2803 -3.66456 -6.8788
RightHand  -5.40188 8.33567 -43.4073
LeftUpLeg  -88.4757 8.82552 -1.15615
LeftLeg  88.0716 -14.1171 17.4345
LeftFoot  29.8237 -1.72152 4.59731
LeftToes  5.91571e-011 -3.44359e-011 -3.93244e-011
610
root  -1.19826 6.00547 15.764 -46.2213 -8.04038 1.93663
RightUpLeg  -89.2958 -5.42016 7.61381
RightLeg  92.1721 16.6154 -8.6835
RightFoot  30.6677 3.00868 -7.77348
RightToes  5.82077e-011 -3.18055e-015 -2.98177e-016
Spine  32.2306 2.10997 6.15431
Spine1  24.2847 1.23662 0.971613
HEad  -17.0073 7.50348 2.43223
LeftShoulder1  -3.88251e-019 9.70628e-020 -3.87848e-018
LeftArm  -2.71958 44.6208 -25.4049
LeftForeArm  3.56925 -1.31764 -0.785742
LeftHand  -3.70509 -6.66571 35.9137
RightShoulder  3.66942 7.89676 18.8685
RightArm  3.52652 -45.6513 3.27975
RightForeArm  20.3556 1.75333 -7.76777
RightHand  -6.31752 8.77513 -48.461
LeftUpLeg  -88.532 8.93807 -1.25669
LeftLeg  87.9828 -14.1106 17.7176
LeftFoot  29.6765 -1.76322 4.71956
LeftToes  5.91571e-011 -3.44359e-011 -3.93244e-011
611
root  -1.16783 6.00719 15.7538 -46.1959 -8.06836 1.86042
RightUpLeg  -89.2733 -5.51253 7.63704
RightLeg  92.1121 16.603 -8.64569
RightFoot  30.6431 3.00495 -7.76878
RightToes  5.82077e-011 -3.18055e-015 -2.98177e-016
Spine  31.849 2.01898 5.72595
Spine1  25.6252 0.73708 1.60725
HEad  -16.0507 8.43295 1.61515
LeftShoulder1  -3.88251e-019 9.70628e-020 -3.87848e-018
LeftArm  0.13909 54.1184 -23.9908
LeftForeArm  -1.1474 -6.71547 -1.09729
LeftHand  -4.72791 -7.59191 41.9643
RightShoulder  3.92181 7.78524 20.7071
RightArm  11.5883 -53.7772 -4.26333
RightForeArm  10.8451 10.1112 -8.16771
RightHand  -6.99213 8.82642 -52.7748
LeftUpLeg  -88.5351 9.02802 -1.37816
LeftLeg  87.8633 -14.075 17.714
LeftFoot  30.0162 -1.89095 5.00407
LeftToes  5.91571e-011 -3.44359e-011 -3.93244e-011
612
root  -1.1513 6.00345 15.7507 -46.201 -8.17854 1.80382
RightUpLeg  -89.2118 -5.422 7.67421
RightLeg  92.0339 16.5957 -8.67879
RightFoot  30.7316 2.99092 -7.71784
RightToes  5.82077e-011 -3.18055e-015 -2.98177e-016
Spine  31.1088 1.8977 4.71846
Spine1  27.0046 -0.0451435 2.3709
HEad  -14.0561 9.76144 1.12737
LeftShoulder1  -3.88251e-019 9.70628e-020 -3.87848e-018
LeftArm  2.72015 62.9268 -23.1582
LeftForeArm  -3.88557 -10.8262 -1.37639
LeftHand  -5.51396 -8.74514 44.57
RightShoulder  4.06338 7.71438 21.7595
RightArm  17.0012 -59.194 -8.64268
RightForeArm  7.83912 13.6713 -8.41148
RightHand  -7.30986 8.82857 -54.8384
LeftUpLeg  -88.4818 9.20599 -1.45045
LeftLeg  87.7684 -14.0327 17.4995
LeftFoot  30.6286 -2.04173 5.30726
LeftToes  5.91571e-011 -3.44359e-011 -3.93244e-011
613
root  -1.13333 5.98921 15.7554 -46.3027 -8.38977 1.82274
RightUpLeg  -89.0906 -5.23528 7.75465
RightLeg  91.9797 16.5877 -8.67366
RightFoot  30.8951 3.00315 -7.71803
RightToes  5.82077e-011 -3.18055e-015 -2.98177e-016
Spine  30.5332 1.7445 3.66465
Spine1  27.7063 -0.850884 3.05017
HEad  -11.6468 10.9813 1.15599
LeftShoulder1  -3.88251e-019 9.70628e-020 -3.87848e-018
LeftArm  4.08906 70.6517 -24.6121
LeftForeArm  -4.73636 -13.4602 -1.92527
LeftHand  -5.52883 -9.05497 43.7374
RightShoulder  4.2776 7.89239 22.7762
RightArm  19.0345 -62.3071 -9.79621
RightForeArm  9.36358 12.677 -8.02181
RightHand  -6.56887 8.13322 -52.1043
LeftUpLeg  -88.3397 9.39975 -1.41308
LeftLeg  87.7397 -14.0095 17.269
LeftFoot  31.1977 -2.16074 5.52848
LeftToes  5.91571e-011 -3.44359e-011 -3.93244e-011
614
root  -1.10674 5.96572 15.7597 -46.5052 -8.53805 1.85695
RightUpLeg  -88.9202 -5.1978 7.81581
RightLeg  91.9648 16.5835 -8.65231
RightFoot  31.0368 3.02767 -7.75238
RightToes  5.82077e-011 -3.18055e-015 -2.98177e-016
Spine  30.0972 1.64844 2.92898
Spine1  28.0511 -1.49718 3.71988
HEad  -10.2544 11.7066 1.63421
LeftShoulder1  -3.88251e-019 9.70628e-020 -3.87848e-018
LeftArm  -0.560059 76.6457 -32.8958
LeftForeArm  -8.2891 -15.1961 -2.42343
LeftHand  -5.2587 -8.08069 44.6534
RightShoulder  4.83604 8.40721 25.1872
RightArm  20.0554 -63.2945 -10.442
RightForeArm  6.64105 11.8894 -7.25219
RightHand  -5.39646 6.66185 -48.6538
LeftUpLeg  -88.1302 9.36612 -1.2879
LeftLeg  87.755 -14.008 17.1782
LeftFoot  31.5405 -2.23224 5.65803
LeftToes  5.91571e-011 -3.44359e-011 -3.93244e-011
